<?xml version="1.0" encoding="utf-8"?>
<!-- Generator: Adobe Illustrator 26.5.0, SVG Export Plug-In . SVG Version: 6.00 Build 0)  -->
<svg version="1.0" id="katman_1" xmlns="http://www.w3.org/2000/svg" xmlns:xlink="http://www.w3.org/1999/xlink" x="0px" y="0px"
	 viewBox="0 0 1190.55 841.89" style="enable-background:new 0 0 1190.55 841.89;" xml:space="preserve">
<path d="M598.51,123.51h0.13h0.19c80.47,1.02,153.27,34.08,206.17,86.98C858.74,264.24,892,338.5,892,420.5
	c0,82.01-33.26,156.27-86.99,210.01c-52.9,52.9-125.7,85.95-206.17,86.96h-0.01h-0.19h-0.05h-0.06h-0.05h-0.03h-0.02h-0.07h-0.05
	h-0.07h-0.05h-0.07h-0.05H598h-0.05l-0.02,0c-0.97,0.03-1.95,0.05-2.92,0.05c-1.28,0-2.55-0.02-3.83-0.05h-0.01
	c-80.47-1.02-153.27-34.06-206.17-86.96c-53.73-53.74-87-128-87-210.01c0-82,33.26-156.26,87-210.01
	c52.9-52.9,125.7-85.96,206.17-86.98h0.19h0.13h0.12h0.05h0.05h0.05h0.05h0.05h0.05h0.07h0.05h0.05h0.05h0.05h0.05h0.05
	c0.9-0.02,1.78-0.04,2.69-0.04C596.18,123.47,597.34,123.49,598.51,123.51L598.51,123.51z M602.14,702.82h-2.17v2.26
	C600.7,704.46,601.42,703.7,602.14,702.82L602.14,702.82z M589.69,702.82h-1.83c0.61,0.74,1.22,1.41,1.83,1.96V702.82L589.69,702.82
	z M551.47,692.49h0.77c-0.79-0.97-1.6-1.96-2.37-2.98h-2.51C548.71,690.55,550.09,691.53,551.47,692.49L551.47,692.49z
	 M565.58,692.49h6.14c-0.42-0.97-0.84-1.96-1.25-2.98h-7.67C563.71,690.55,564.64,691.53,565.58,692.49L565.58,692.49z
	 M581.85,692.49h7.84v-2.98h-9.13C580.99,690.55,581.43,691.53,581.85,692.49L581.85,692.49z M599.97,692.49h8.18
	c0.43-0.95,0.86-1.94,1.29-2.98h-9.46V692.49L599.97,692.49z M618.29,692.49h6.14c0.94-0.95,1.87-1.94,2.79-2.98h-7.67
	C619.13,690.53,618.71,691.51,618.29,692.49L618.29,692.49z M637.76,692.49h0.47c1.36-0.95,2.72-1.94,4.07-2.98h-2.17
	C639.35,690.53,638.55,691.51,637.76,692.49L637.76,692.49z M696.72,670.63h-1.44c-1.42,1.46-2.85,2.9-4.3,4.3
	C692.91,673.54,694.81,672.09,696.72,670.63L696.72,670.63z M680.58,670.63h-5.57c-2.32,2.99-4.66,5.87-7.06,8.6h2.53
	C673.91,676.54,677.27,673.66,680.58,670.63L680.58,670.63z M661.81,670.63h-9.58c-1.65,2.99-3.31,5.87-5.02,8.6h6.71
	C656.61,676.54,659.22,673.66,661.81,670.63L661.81,670.63z M640.58,670.63H625.9c-0.86,2.99-1.73,5.87-2.63,8.6h11.87
	C636.99,676.54,638.79,673.66,640.58,670.63L640.58,670.63z M615.67,670.63h-15.7v8.6h13.15
	C613.98,676.54,614.83,673.66,615.67,670.63L615.67,670.63z M589.69,670.63h-15.36c0.84,3.03,1.68,5.91,2.54,8.6h12.82V670.63
	L589.69,670.63z M564.1,670.63h-14.68c1.78,3.03,3.59,5.91,5.44,8.6h11.87C565.82,676.49,564.96,673.61,564.1,670.63L564.1,670.63z
	 M537.77,670.63h-9.96c2.59,3.04,5.22,5.91,7.9,8.6h7.07C541.08,676.49,539.41,673.61,537.77,670.63L537.77,670.63z M515.37,670.63
	h-5.96c3.31,3.03,6.67,5.91,10.1,8.6h2.92C520.03,676.49,517.69,673.61,515.37,670.63L515.37,670.63z M494.73,670.63h-1.44
	c1.9,1.46,3.81,2.91,5.74,4.3C497.58,673.53,496.15,672.09,494.73,670.63L494.73,670.63z M465.06,660.35h0.94
	c-3.24-3.22-6.43-6.55-9.53-10.01h-3.28C457.05,653.82,461.02,657.15,465.06,660.35L465.06,660.35z M480.98,660.35h4.35
	c-2.76-3.22-5.47-6.55-8.11-10.01h-6.65C473.96,653.82,477.44,657.15,480.98,660.35L480.98,660.35z M499.04,660.35h8.85
	c-2.2-3.22-4.35-6.55-6.45-10.01h-11.18C493.12,653.82,496.06,657.15,499.04,660.35L499.04,660.35z M519.68,660.35h12.79
	c-1.56-3.22-3.08-6.55-4.56-10.01h-15.09C515.05,653.82,517.35,657.15,519.68,660.35L519.68,660.35z M543.82,660.35h17.51
	c-0.81-3.22-1.6-6.55-2.35-10.01h-19.93C540.6,653.82,542.19,657.15,543.82,660.35L543.82,660.35z M571.67,660.35h18.02v-10.01
	h-20.32C570.12,653.82,570.89,657.15,571.67,660.35L571.67,660.35z M599.97,660.35h18.36c0.77-3.2,1.55-6.52,2.3-10.01h-20.66
	V660.35L599.97,660.35z M628.67,660.35h17.52c1.62-3.19,3.22-6.52,4.77-10.01h-19.93C630.26,653.79,629.47,657.13,628.67,660.35
	L628.67,660.35z M657.53,660.35h12.4c2.34-3.19,4.64-6.52,6.88-10.01H662.1C660.61,653.79,659.09,657.13,657.53,660.35
	L657.53,660.35z M682.47,660.35h8.49c2.99-3.19,5.92-6.52,8.77-10.01h-10.82C686.81,653.79,684.66,657.12,682.47,660.35
	L682.47,660.35z M704.67,660.35h4.35c3.54-3.19,7.02-6.53,10.41-10.01h-6.65C710.14,653.79,707.43,657.12,704.67,660.35
	L704.67,660.35z M723.99,660.35h0.95c4.04-3.2,8.01-6.52,11.87-10.01h-3.28C730.42,653.79,727.23,657.12,723.99,660.35
	L723.99,660.35z M774.83,624.76h-0.18l-1.05,1.34L774.83,624.76L774.83,624.76z M761.46,624.76h-7.72
	c-1.21,1.73-2.42,3.46-3.65,5.15c-2.54,3.47-5.14,6.85-7.81,10.15h5.27C752.36,635.18,756.99,630.08,761.46,624.76L761.46,624.76z
	 M741.08,624.76h-11.13c-0.95,1.61-1.9,3.21-2.88,4.8c-2.23,3.6-4.52,7.09-6.85,10.5h8.64
	C733.08,635.18,737.15,630.08,741.08,624.76L741.08,624.76z M717.97,624.76h-15.44c-0.68,1.46-1.36,2.92-2.06,4.35
	c-1.83,3.76-3.73,7.4-5.66,10.95h12.86C711.22,635.18,714.67,630.07,717.97,624.76L717.97,624.76z M691.15,624.76h-19.43l-1.25,3.75
	c-1.35,3.96-2.76,7.82-4.2,11.55h16.78C685.84,635.18,688.55,630.07,691.15,624.76L691.15,624.76z M660.9,624.76h-24.99l-0.49,2.97
	c-0.73,4.24-1.49,8.35-2.27,12.33h22.11c1.89-4.74,3.72-9.68,5.49-14.84L660.9,624.76L660.9,624.76z M625.5,624.76h-25.53v15.3
	h22.76c0.88-4.5,1.74-9.18,2.58-14.06L625.5,624.76L625.5,624.76z M589.69,624.76H564.5l0.19,1.24c0.83,4.87,1.7,9.56,2.58,14.06
	h22.42V624.76L589.69,624.76z M554.08,624.76H529.1l0.15,0.46c1.76,5.15,3.59,10.1,5.49,14.84h22.11
	c-0.78-3.98-1.54-8.09-2.27-12.33L554.08,624.76L554.08,624.76z M518.28,624.76h-19.71c2.59,5.31,5.27,10.42,8.05,15.3h17.11
	c-1.44-3.73-2.85-7.59-4.2-11.55L518.28,624.76L518.28,624.76z M487.78,624.76h-15.75c3.31,5.31,6.75,10.42,10.3,15.3h13.19
	C492.84,635.16,490.26,630.04,487.78,624.76L487.78,624.76z M460.05,624.76h-11.13c3.92,5.31,8,10.42,12.22,15.3h8.64
	c-2.34-3.41-4.63-6.9-6.85-10.5C461.96,627.97,461.01,626.37,460.05,624.76L460.05,624.76z M436.26,624.76h-7.72
	c4.47,5.32,9.1,10.42,13.91,15.3h5.27c-2.66-3.29-5.27-6.68-7.81-10.15C438.68,628.22,437.47,626.49,436.26,624.76L436.26,624.76z
	 M415.35,624.76h-0.11l0.91,1.02L415.35,624.76L415.35,624.76z M406.37,614.48h1.25c-4.13-5.74-8.1-11.66-11.85-17.77h-2.89
	C397.15,602.84,401.66,608.76,406.37,614.48L406.37,614.48z M420.34,614.48h9.09c-3.64-5.74-7.13-11.67-10.45-17.77h-11.11
	C411.83,602.83,415.99,608.76,420.34,614.48L420.34,614.48z M441.71,614.48h12.55c-3.09-5.74-6.05-11.67-8.86-17.77h-14.63
	C434.24,602.83,437.89,608.76,441.71,614.48L441.71,614.48z M465.95,614.48h17.21c-2.47-5.74-4.84-11.66-7.08-17.77h-19.36
	C459.64,602.83,462.73,608.76,465.95,614.48L465.95,614.48z M493.8,614.48h21.25c-1.72-5.74-3.38-11.66-4.94-17.77h-23.55
	C488.86,602.84,491.28,608.76,493.8,614.48L493.8,614.48z M525.77,614.48h26.68c-0.87-5.74-1.7-11.65-2.49-17.77h-29.25
	C522.31,602.83,524.01,608.76,525.77,614.48L525.77,614.48z M562.84,614.48h26.85V596.7h-29.37
	C561.12,602.83,561.96,608.75,562.84,614.48L562.84,614.48z M599.97,614.48h27.18c0.88-5.73,1.72-11.65,2.53-17.77h-29.71V614.48
	L599.97,614.48z M637.55,614.48h26.68c1.77-5.72,3.46-11.65,5.07-17.77h-29.25C639.25,602.82,638.42,608.74,637.55,614.48
	L637.55,614.48z M674.95,614.48h20.98c2.53-5.72,4.96-11.65,7.27-17.77h-23.31C678.32,602.82,676.67,608.74,674.95,614.48
	L674.95,614.48z M707.13,614.48h16.92c3.22-5.72,6.3-11.64,9.23-17.77h-19.13C711.93,602.82,709.58,608.75,707.13,614.48
	L707.13,614.48z M735.74,614.48h12.55c3.82-5.72,7.47-11.65,10.94-17.77h-14.63C741.79,602.81,738.84,608.74,735.74,614.48
	L735.74,614.48z M760.57,614.48h9.09c4.34-5.72,8.51-11.64,12.47-17.77h-11.11C767.7,602.81,764.22,608.74,760.57,614.48
	L760.57,614.48z M782.39,614.48h1.3c4.69-5.72,9.19-11.64,13.46-17.77h-2.92C790.48,602.82,786.52,608.74,782.39,614.48
	L782.39,614.48z M845.46,560.06h-1.11c-3.39,6.68-7.01,13.22-10.86,19.59C837.74,573.3,841.73,566.76,845.46,560.06L845.46,560.06z
	 M832.77,560.06h-2.57c-4.34,9.07-9.08,17.88-14.22,26.36h0.99C822.67,577.97,827.94,569.16,832.77,560.06L832.77,560.06z
	 M818.87,560.06h-5.38c-4.03,9.07-8.44,17.88-13.2,26.36h3.72C809.38,577.97,814.33,569.16,818.87,560.06L818.87,560.06z
	 M802.23,560.06h-14.22c-3.56,9.07-7.44,17.88-11.65,26.36h12.1C793.43,577.97,798.03,569.16,802.23,560.06L802.23,560.06z
	 M776.92,560.06h-17.91c-3.02,9.07-6.31,17.88-9.88,26.36h15.68C769.19,577.97,773.23,569.16,776.92,560.06L776.92,560.06z
	 M748.19,560.06h-22.63c-2.39,9.08-4.99,17.88-7.82,26.36h20.24C741.67,577.97,745.07,569.16,748.19,560.06L748.19,560.06z
	 M714.94,560.06H687.9c-1.68,9.08-3.51,17.88-5.5,26.36h24.5C709.81,577.96,712.49,569.16,714.94,560.06L714.94,560.06z
	 M677.46,560.06h-33.4c-0.84,9.08-1.75,17.89-2.75,26.36h30.55C673.89,577.96,675.75,569.15,677.46,560.06L677.46,560.06z
	 M633.74,560.06h-33.77v26.36h30.99C631.97,577.96,632.89,569.15,633.74,560.06L633.74,560.06z M589.69,560.06h-33.44
	c0.85,9.09,1.77,17.9,2.78,26.36h30.66V560.06L589.69,560.06z M545.93,560.06h-33.4c1.71,9.09,3.58,17.9,5.6,26.36h30.55
	C547.68,577.95,546.78,569.15,545.93,560.06L545.93,560.06z M502.1,560.06h-27.18c2.43,9.1,5.08,17.91,7.97,26.36h24.71
	C505.61,577.95,503.78,569.14,502.1,560.06L502.1,560.06z M464.57,560.06h-22.76c3.12,9.1,6.52,17.91,10.2,26.36h20.43
	C469.59,577.94,466.97,569.14,464.57,560.06L464.57,560.06z M430.98,560.06h-17.91c3.7,9.1,7.73,17.91,12.11,26.36h15.68
	C437.29,577.94,434,569.14,430.98,560.06L430.98,560.06z M401.99,560.06h-14.23c4.21,9.1,8.8,17.91,13.77,26.36h12.1
	C409.43,577.94,405.54,569.14,401.99,560.06L401.99,560.06z M376.5,560.06h-5.35c4.54,9.1,9.5,17.91,14.87,26.36h3.69
	C384.93,577.94,380.54,569.14,376.5,560.06L376.5,560.06z M359.79,560.06h-2.56c4.82,9.1,10.09,17.91,15.8,26.36H374
	C368.87,577.94,364.13,569.14,359.79,560.06L359.79,560.06z M345.66,560.06h-1.12c3.74,6.7,7.72,13.24,11.97,19.59
	C352.66,573.29,349.05,566.74,345.66,560.06L345.66,560.06z M339.06,549.76h1.62c-4.5-9.78-8.52-19.86-12-30.19h-2.77
	C329.72,529.93,334.12,540.01,339.06,549.76L339.06,549.76z M352.02,549.76h3.07c-4.25-9.78-8.03-19.85-11.32-30.19h-4.25
	C343.15,529.93,347.33,540.01,352.02,549.76L352.02,549.76z M366.25,549.76h5.89c-3.95-9.78-7.47-19.85-10.52-30.19h-7.14
	C357.89,529.93,361.82,540.01,366.25,549.76L366.25,549.76z M383.23,549.76h14.91c-3.48-9.78-6.59-19.85-9.28-30.19h-16.52
	C375.49,529.94,379.14,540.01,383.23,549.76L383.23,549.76z M409.08,549.76h18.62c-2.96-9.77-5.59-19.85-7.87-30.19H399.5
	C402.29,529.93,405.48,540.01,409.08,549.76L409.08,549.76z M438.43,549.76h23.54c-2.36-9.78-4.46-19.85-6.28-30.19h-25.34
	C432.69,529.94,435.39,540.01,438.43,549.76L438.43,549.76z M472.28,549.76h28c-1.65-9.77-3.12-19.85-4.39-30.19h-29.93
	C467.79,529.93,469.9,540.01,472.28,549.76L472.28,549.76z M510.68,549.76h34.34c-0.83-9.77-1.57-19.85-2.21-30.19h-36.58
	C507.52,529.93,509.01,540.01,510.68,549.76L510.68,549.76z M555.32,549.76h34.36v-30.19H553.1
	C553.74,529.93,554.49,540,555.32,549.76L555.32,549.76z M599.97,549.76h34.7c0.84-9.77,1.58-19.84,2.23-30.19h-36.93V549.76
	L599.97,549.76z M644.98,549.76h34.34c1.67-9.76,3.16-19.83,4.45-30.19h-36.58C646.55,529.92,645.81,539.99,644.98,549.76
	L644.98,549.76z M689.72,549.76h27.86c2.39-9.76,4.52-19.83,6.37-30.19h-29.85C692.85,529.92,691.37,539.99,689.72,549.76
	L689.72,549.76z M728.15,549.76h23.41c3.04-9.76,5.75-19.83,8.09-30.19h-25.26C732.58,529.92,730.5,539.99,728.15,549.76
	L728.15,549.76z M762.3,549.76h18.62c3.6-9.76,6.79-19.83,9.58-30.19h-20.33C767.89,529.92,765.25,539.99,762.3,549.76L762.3,549.76
	z M791.87,549.76h14.9c4.09-9.76,7.74-19.83,10.9-30.19h-16.52C798.46,529.91,795.35,539.99,791.87,549.76L791.87,549.76z
	 M817.86,549.76h5.91c4.42-9.76,8.36-19.83,11.77-30.19h-7.16C825.33,529.91,821.82,539.99,817.86,549.76L817.86,549.76z
	 M834.9,549.76h3.07c4.69-9.76,8.88-19.83,12.5-30.19h-4.25C842.94,529.91,839.15,539.98,834.9,549.76L834.9,549.76z M849.33,549.76
	h1.61c4.93-9.76,9.34-19.84,13.15-30.19h-2.76C857.85,529.91,853.84,539.99,849.33,549.76L849.33,549.76z M876.7,474.03h-3.84
	c-2.09,12.02-4.85,23.79-8.27,35.26h3.08C871.4,497.85,874.42,486.07,876.7,474.03L876.7,474.03z M862.42,474.03h-5.32
	c-1.96,12.02-4.57,23.79-7.79,35.26h4.55C857.4,497.85,860.26,486.07,862.42,474.03L862.42,474.03z M846.78,474.03h-8.3
	c-1.83,12.02-4.25,23.79-7.24,35.26h7.48C842.06,497.85,844.75,486.06,846.78,474.03L846.78,474.03z M828.09,474.03h-18.04
	c-1.61,12.01-3.74,23.79-6.38,35.26h16.95C823.7,497.85,826.21,486.06,828.09,474.03L828.09,474.03z M799.64,474.03h-21.92
	c-1.37,12.02-3.17,23.79-5.41,35.26h20.78C795.8,497.85,797.99,486.07,799.64,474.03L799.64,474.03z M767.38,474.03h-27.01
	c-1.08,12.02-2.51,23.8-4.28,35.26h25.77C764.14,497.85,765.99,486.07,767.38,474.03L767.38,474.03z M730.04,474.03h-31.73
	c-0.76,12.02-1.76,23.79-3.01,35.26h30.38C727.49,497.84,728.94,486.06,730.04,474.03L730.04,474.03z M688.02,474.03H649.3
	c-0.39,12.02-0.88,23.8-1.51,35.26h37.19C686.24,497.84,687.25,486.06,688.02,474.03L688.02,474.03z M639.01,474.03h-39.04v35.26
	h37.52C638.13,497.84,638.62,486.06,639.01,474.03L639.01,474.03z M589.69,474.03h-38.7c0.39,12.03,0.88,23.81,1.51,35.26h37.19
	V474.03L589.69,474.03z M540.7,474.03h-38.72c0.77,12.03,1.78,23.81,3.04,35.26h37.19C541.58,497.83,541.08,486.05,540.7,474.03
	L540.7,474.03z M491.69,474.03h-31.75c1.09,12.04,2.53,23.81,4.32,35.26h30.44C493.45,497.83,492.45,486.05,491.69,474.03
	L491.69,474.03z M449.65,474.03h-27.03c1.4,12.04,3.24,23.81,5.53,35.26h25.81C452.17,497.83,450.74,486.05,449.65,474.03
	L449.65,474.03z M412.28,474.03h-21.92c1.65,12.04,3.85,23.81,6.56,35.26h20.78C415.45,497.83,413.65,486.05,412.28,474.03
	L412.28,474.03z M379.94,474.03h-18.04c1.89,12.03,4.38,23.81,7.47,35.26h16.95C383.69,497.83,381.56,486.05,379.94,474.03
	L379.94,474.03z M351.52,474.03h-8.28c2.04,12.04,4.73,23.81,8.06,35.26h7.45C355.77,497.83,353.35,486.05,351.52,474.03
	L351.52,474.03z M332.89,474.03h-5.32c2.16,12.04,5.02,23.81,8.56,35.26h4.55C337.46,497.83,334.86,486.05,332.89,474.03
	L332.89,474.03z M317.14,474.03h-3.84c2.28,12.04,5.3,23.81,9.03,35.26h3.08C321.99,497.83,319.22,486.05,317.14,474.03
	L317.14,474.03z M311.55,463.75h3.97c-1.74-12.49-2.74-25.23-2.95-38.17h-4.24C308.56,438.53,309.65,451.28,311.55,463.75
	L311.55,463.75z M325.92,463.75h5.47c-1.64-12.49-2.58-25.23-2.78-38.17h-5.75C323.08,438.54,324.12,451.27,325.92,463.75
	L325.92,463.75z M341.67,463.75h8.43c-1.53-12.49-2.41-25.23-2.59-38.17h-8.72C339,438.54,339.97,451.27,341.67,463.75
	L341.67,463.75z M360.46,463.75h18.24c-1.35-12.49-2.12-25.23-2.28-38.17H357.8C357.98,438.54,358.89,451.28,360.46,463.75
	L360.46,463.75z M389.09,463.75h22.14c-1.14-12.49-1.81-25.23-1.94-38.17h-22.54C386.91,438.54,387.71,451.27,389.09,463.75
	L389.09,463.75z M421.54,463.75h27.27c-0.91-12.49-1.44-25.23-1.55-38.17h-27.7C419.7,438.54,420.38,451.27,421.54,463.75
	L421.54,463.75z M459.1,463.75h32c-0.64-12.49-1.01-25.23-1.09-38.17h-32.46C457.66,438.54,458.19,451.27,459.1,463.75L459.1,463.75
	z M501.39,463.75h39.01c-0.32-12.49-0.51-25.23-0.55-38.17h-39.56C500.37,438.54,500.75,451.27,501.39,463.75L501.39,463.75z
	 M550.69,463.75h39v-38.17h-39.56C550.17,438.54,550.37,451.27,550.69,463.75L550.69,463.75z M599.97,463.75h39.33
	c0.33-12.48,0.51-25.22,0.56-38.17h-39.89V463.75L599.97,463.75z M649.6,463.75h39.01c0.64-12.48,1.02-25.22,1.1-38.17h-39.56
	C650.11,438.53,649.92,451.27,649.6,463.75L649.6,463.75z M698.9,463.75h31.99c0.92-12.48,1.46-25.22,1.57-38.17h-32.47
	C699.91,438.52,699.54,451.26,698.9,463.75L698.9,463.75z M741.2,463.75h27.25c1.16-12.48,1.84-25.22,1.98-38.17h-27.7
	C742.63,438.52,742.11,451.27,741.2,463.75L741.2,463.75z M778.77,463.75h22.14c1.38-12.48,2.17-25.22,2.34-38.17h-22.54
	C780.58,438.53,779.92,451.26,778.77,463.75L778.77,463.75z M811.3,463.75h18.24c1.57-12.48,2.47-25.22,2.66-38.17h-18.61
	C813.42,438.53,812.65,451.26,811.3,463.75L811.3,463.75z M839.89,463.75h8.46c1.69-12.48,2.67-25.22,2.87-38.17h-8.74
	C842.3,438.53,841.41,451.27,839.89,463.75L839.89,463.75z M858.62,463.75h5.46c1.8-12.48,2.84-25.22,3.06-38.17h-5.74
	C861.21,438.52,860.26,451.26,858.62,463.75L858.62,463.75z M874.47,463.75h3.97c1.9-12.48,2.99-25.22,3.22-38.17h-4.24
	C877.22,438.53,876.22,451.27,874.47,463.75L874.47,463.75z M636.92,147.37h-0.01c1.06,1.28,2.13,2.62,3.17,3.99h2.42
	C640.65,149.94,638.79,148.62,636.92,147.37L636.92,147.37z M623.32,147.37h-5.52c0.57,1.28,1.14,2.62,1.69,3.99h7.62
	C625.86,149.95,624.58,148.61,623.32,147.37L623.32,147.37z M607.64,147.37h-7.67v3.99h9.42
	C608.82,149.95,608.23,148.61,607.64,147.37L607.64,147.37z M589.69,147.37h-7.34c-0.58,1.25-1.17,2.58-1.74,3.99h9.08V147.37
	L589.69,147.37z M572.2,147.37h-5.52c-1.27,1.25-2.55,2.58-3.79,3.99h7.62C571.07,149.98,571.63,148.65,572.2,147.37L572.2,147.37z
	 M588.84,137.04h0.85v-0.84C589.4,136.45,589.12,136.73,588.84,137.04L588.84,137.04z M599.97,137.04h1.2
	c-0.4-0.42-0.79-0.8-1.2-1.14V137.04L599.97,137.04z M723.57,179.51h-0.7c3.6,3.53,7.12,7.21,10.54,11.02h3.28
	C732.44,186.69,728.05,183.01,723.57,179.51L723.57,179.51z M707.77,179.51h-4.04c3.06,3.53,6.05,7.21,8.96,11.02h6.62
	C715.56,186.69,711.71,183.01,707.77,179.51L707.77,179.51z M689.92,179.51h-8.58c2.43,3.53,4.82,7.21,7.14,11.02h11.15
	C696.48,186.69,693.23,183.01,689.92,179.51L689.92,179.51z M669.49,179.51H657c1.72,3.53,3.42,7.21,5.05,11.02h15.05
	C674.63,186.69,672.08,183.01,669.49,179.51L669.49,179.51z M645.62,179.51h-17.23c0.89,3.53,1.77,7.21,2.62,11.02h19.9
	C649.18,186.69,647.41,183.01,645.62,179.51L645.62,179.51z M618.06,179.51h-18.08v11.02h20.63
	C619.77,186.69,618.91,183.01,618.06,179.51L618.06,179.51z M589.69,179.51h-17.75c-0.86,3.49-1.71,7.18-2.54,11.02h20.29V179.51
	L589.69,179.51z M561.62,179.51h-17.24c-1.79,3.49-3.57,7.18-5.28,11.02H559C559.85,186.72,560.72,183.04,561.62,179.51
	L561.62,179.51z M533,179.51h-12.12c-2.59,3.49-5.14,7.18-7.62,11.02h14.69C529.58,186.72,531.28,183.04,533,179.51L533,179.51z
	 M508.28,179.51h-8.2c-3.32,3.49-6.56,7.18-9.71,11.02h10.8C503.47,186.72,505.85,183.04,508.28,179.51L508.28,179.51z
	 M486.27,179.51h-4.04c-3.93,3.49-7.79,7.18-11.54,11.02h6.62C480.22,186.72,483.21,183.04,486.27,179.51L486.27,179.51z
	 M467.12,179.51h-0.7c-4.47,3.49-8.86,7.19-13.12,11.02h3.28C460.01,186.72,463.53,183.03,467.12,179.51L467.12,179.51z
	 M494.73,169.23h1.05c1.03-1.04,2.06-2.05,3.1-3.06C497.48,167.17,496.11,168.19,494.73,169.23L494.73,169.23z M510.61,169.23h5.22
	c2.07-2.63,4.17-5.16,6.31-7.59h-2.5C516.58,164.03,513.57,166.56,510.61,169.23L510.61,169.23z M529.12,169.23h9.24
	c1.47-2.63,2.96-5.16,4.48-7.59h-6.66C533.79,164.03,531.44,166.56,529.12,169.23L529.12,169.23z M550.05,169.23h14.37
	c0.77-2.63,1.54-5.16,2.35-7.59H554.9C553.26,164.03,551.64,166.56,550.05,169.23L550.05,169.23z M574.63,169.23h15.06v-7.59H576.9
	C576.13,164.03,575.38,166.56,574.63,169.23L574.63,169.23z M599.97,169.23h15.39c-0.75-2.67-1.51-5.2-2.27-7.59h-13.12V169.23
	L599.97,169.23z M625.58,169.23h14.36c-1.59-2.67-3.21-5.2-4.86-7.59h-11.85C624.04,164.07,624.82,166.6,625.58,169.23
	L625.58,169.23z M651.64,169.23h9.61c-2.32-2.67-4.67-5.2-7.07-7.59h-7.02C648.68,164.07,650.17,166.59,651.64,169.23L651.64,169.23
	z M673.77,169.23h5.62c-2.96-2.67-5.97-5.2-9.03-7.59h-2.9C669.6,164.07,671.69,166.59,673.77,169.23L673.77,169.23z M694.22,169.23
	h1.05c-1.38-1.04-2.75-2.06-4.15-3.06C692.16,167.18,693.19,168.19,694.22,169.23L694.22,169.23z M782.73,225.38h-1.14
	c4.39,6.05,8.6,12.32,12.58,18.78h2.89C792.52,237.67,787.73,231.4,782.73,225.38L782.73,225.38z M768.81,225.38h-8.95
	c3.87,6.05,7.59,12.32,11.1,18.78h11.09C777.86,237.68,773.43,231.4,768.81,225.38L768.81,225.38z M747.53,225.38h-12.38
	c3.29,6.05,6.43,12.32,9.41,18.78h14.62C755.49,237.67,751.6,231.4,747.53,225.38L747.53,225.38z M723.43,225.38h-17.06
	c2.62,6.05,5.13,12.32,7.51,18.78h19.36C730.14,237.68,726.86,231.4,723.43,225.38L723.43,225.38z M695.7,225.38h-21.1
	c1.83,6.04,3.59,12.32,5.25,18.78h23.54C700.96,237.67,698.39,231.39,695.7,225.38L695.7,225.38z M663.87,225.38h-26.49
	c0.92,6.04,1.8,12.31,2.64,18.78h29.24C667.57,237.68,665.76,231.4,663.87,225.38L663.87,225.38z M626.97,225.38h-27v18.78h29.68
	C628.8,237.68,627.9,231.41,626.97,225.38L626.97,225.38z M589.69,225.38h-26.66c-0.93,6.04-1.83,12.3-2.69,18.78h29.35V225.38
	L589.69,225.38z M552.62,225.38h-26.49c-1.88,6.03-3.69,12.3-5.39,18.78h29.24C550.81,237.68,551.7,231.41,552.62,225.38
	L552.62,225.38z M515.39,225.38h-20.84c-2.7,6.02-5.28,12.29-7.73,18.78h23.32C511.8,237.69,513.56,231.41,515.39,225.38
	L515.39,225.38z M483.37,225.38h-16.8c-3.43,6.02-6.72,12.3-9.82,18.78h19.16C478.27,237.69,480.77,231.42,483.37,225.38
	L483.37,225.38z M454.85,225.38h-12.38c-4.07,6.02-7.96,12.29-11.64,18.78h14.62C448.42,237.69,451.56,231.42,454.85,225.38
	L454.85,225.38z M430.14,225.38h-8.95c-4.63,6.02-9.06,12.3-13.25,18.78h11.1C422.56,237.69,426.27,231.42,430.14,225.38
	L430.14,225.38z M408.4,225.38h-1.17c-5,6.02-9.77,12.29-14.3,18.78h2.91C399.81,237.7,404,231.42,408.4,225.38L408.4,225.38z
	 M416.21,215.09h0.02l0.14-0.18L416.21,215.09L416.21,215.09z M429.5,215.09h7.55c0.95-1.35,1.9-2.68,2.87-4
	c2.57-3.51,5.21-6.95,7.9-10.28h-5.26C438.06,205.38,433.7,210.14,429.5,215.09L429.5,215.09z M449.76,215.09h10.95l2.22-3.65
	c2.25-3.63,4.57-7.18,6.93-10.63h-8.61C457.29,205.38,453.46,210.14,449.76,215.09L449.76,215.09z M472.73,215.09h15.3l1.52-3.19
	l-0.02-0.01c1.86-3.8,3.77-7.49,5.72-11.08h-12.85C479.08,205.38,475.86,210.14,472.73,215.09L472.73,215.09z M499.42,215.09h19.24
	l0.87-2.6c1.37-4.01,2.79-7.9,4.24-11.68h-16.75C504.4,205.38,501.87,210.14,499.42,215.09L499.42,215.09z M529.49,215.09h24.79
	l0.3-1.83c0.74-4.28,1.5-8.44,2.29-12.45h-22.09C532.96,205.38,531.19,210.14,529.49,215.09L529.49,215.09z M564.68,215.09h25.01
	v-14.28h-22.4c-0.88,4.54-1.75,9.27-2.59,14.18L564.68,215.09L564.68,215.09z M599.97,215.09h25.35l-0.02-0.1
	c-0.84-4.91-1.71-9.64-2.59-14.18h-22.74V215.09L599.97,215.09z M635.73,215.09h24.78c-1.71-4.95-3.47-9.71-5.28-14.28h-22.09
	c0.79,4.02,1.55,8.18,2.29,12.45L635.73,215.09L635.73,215.09z M671.34,215.09h19.54c-2.44-4.95-4.95-9.71-7.57-14.28h-17.09
	c1.46,3.77,2.87,7.67,4.24,11.68L671.34,215.09L671.34,215.09z M701.69,215.09h15.57c-3.12-4.95-6.35-9.71-9.68-14.28h-13.17
	C696.93,205.41,699.35,210.17,701.69,215.09L701.69,215.09z M729.29,215.09h10.95c-3.7-4.95-7.53-9.72-11.49-14.28h-8.61
	c2.36,3.45,4.68,6.99,6.93,10.63L729.29,215.09L729.29,215.09z M752.95,215.09h7.55c-4.2-4.95-8.56-9.72-13.06-14.28h-5.26
	c2.7,3.33,5.34,6.77,7.91,10.28C751.05,212.41,752,213.75,752.95,215.09L752.95,215.09z M850.38,290.09h-1.56
	c4.7,10.09,8.87,20.51,12.48,31.2h2.76C860.11,310.57,855.53,300.16,850.38,290.09L850.38,290.09z M837.45,290.09h-3.02
	c4.43,10.09,8.37,20.51,11.76,31.2h4.25C846.69,310.58,842.34,300.16,837.45,290.09L837.45,290.09z M823.25,290.09h-5.84
	c4.12,10.09,7.78,20.51,10.94,31.2h7.14C831.96,310.58,827.86,300.15,823.25,290.09L823.25,290.09z M806.3,290.09h-14.84
	c3.63,10.09,6.87,20.51,9.66,31.2h16.52C814.37,310.58,810.56,300.16,806.3,290.09L806.3,290.09z M780.5,290.09h-18.55
	c3.08,10.09,5.83,20.51,8.19,31.2h20.32C787.58,310.58,784.25,300.16,780.5,290.09L780.5,290.09z M751.23,290.09h-23.47
	c2.46,10.09,4.65,20.51,6.53,31.2h25.34C757.21,310.58,754.39,300.16,751.23,290.09L751.23,290.09z M717.44,290.09h-27.91
	c1.71,10.09,3.25,20.51,4.56,31.2h29.92C722.12,310.58,719.91,300.15,717.44,290.09L717.44,290.09z M679.13,290.09h-34.24
	c0.85,10.09,1.63,20.5,2.3,31.2h36.57C682.43,310.58,680.87,300.16,679.13,290.09L679.13,290.09z M634.58,290.09h-34.61v31.2h36.92
	C636.22,310.58,635.45,300.16,634.58,290.09L634.58,290.09z M589.69,290.09h-34.27c-0.87,10.07-1.65,20.49-2.31,31.2h36.58V290.09
	L589.69,290.09z M545.11,290.09h-34.24c-1.74,10.07-3.29,20.49-4.62,31.2h36.57C543.47,310.59,544.25,300.18,545.11,290.09
	L545.11,290.09z M500.47,290.09h-27.8c-2.49,10.07-4.71,20.49-6.62,31.2h29.86C497.21,310.6,498.75,300.18,500.47,290.09
	L500.47,290.09z M462.13,290.09h-23.36c-3.16,10.07-5.98,20.49-8.4,31.2h25.27C457.52,310.6,459.69,300.18,462.13,290.09
	L462.13,290.09z M428.05,290.09H409.5c-3.75,10.07-7.08,20.49-9.96,31.2h20.32C422.22,310.6,424.97,300.18,428.05,290.09
	L428.05,290.09z M398.54,290.09H383.7c-4.27,10.07-8.07,20.49-11.34,31.2h16.52C391.67,310.6,394.91,300.18,398.54,290.09
	L398.54,290.09z M372.59,290.09h-5.86c-4.6,10.06-8.7,20.49-12.23,31.2h7.16C364.81,310.6,368.47,300.18,372.59,290.09
	L372.59,290.09z M355.59,290.09h-3.04c-4.89,10.07-9.24,20.49-12.99,31.2h4.24C347.21,310.6,351.16,300.18,355.59,290.09
	L355.59,290.09z M341.18,290.09h-1.56c-5.15,10.07-9.73,20.48-13.68,31.2h2.76C332.31,310.6,336.48,300.18,341.18,290.09
	L341.18,290.09z M345.16,279.79h1.05c3.21-6.25,6.61-12.37,10.22-18.35C352.45,267.41,348.7,273.52,345.16,279.79L345.16,279.79z
	 M357.81,279.79h2.53c4.22-8.72,8.8-17.17,13.76-25.35h-1.01C367.59,262.59,362.49,271.04,357.81,279.79L357.81,279.79z
	 M371.68,279.79H377c3.91-8.72,8.17-17.18,12.77-25.35h-3.71C380.88,262.59,376.08,271.04,371.68,279.79L371.68,279.79z
	 M388.27,279.79h14.14c3.45-8.72,7.21-17.17,11.28-25.35h-12.1C396.8,262.59,392.35,271.05,388.27,279.79L388.27,279.79z
	 M413.53,279.79h17.82c2.93-8.72,6.11-17.18,9.55-25.35h-15.67C421.02,262.59,417.12,271.05,413.53,279.79L413.53,279.79z
	 M442.18,279.79h22.57c2.32-8.72,4.84-17.18,7.57-25.35h-20.26C448.5,262.59,445.21,271.05,442.18,279.79L442.18,279.79z
	 M475.34,279.79h26.96c1.63-8.73,3.4-17.18,5.31-25.35h-24.5C480.32,262.59,477.72,271.05,475.34,279.79L475.34,279.79z
	 M512.74,279.79h33.29c0.82-8.73,1.71-17.18,2.67-25.35h-30.55C516.2,262.59,514.41,271.05,512.74,279.79L512.74,279.79z
	 M556.35,279.79h33.34v-25.35h-30.64C558.08,262.6,557.18,271.05,556.35,279.79L556.35,279.79z M599.97,279.79h33.67
	c-0.83-8.74-1.72-17.19-2.7-25.35h-30.97V279.79L599.97,279.79z M643.97,279.79h33.29c-1.67-8.74-3.46-17.2-5.41-25.35H641.3
	C642.26,262.61,643.15,271.06,643.97,279.79L643.97,279.79z M687.7,279.79h27.1c-2.36-8.75-4.93-17.2-7.71-25.35h-24.7
	C684.3,262.61,686.06,271.06,687.7,279.79L687.7,279.79z M725.13,279.79h22.69c-3.03-8.74-6.32-17.2-9.88-25.35h-20.44
	C720.26,262.61,722.8,271.07,725.13,279.79L725.13,279.79z M758.65,279.79h17.82c-3.59-8.74-7.49-17.2-11.71-25.35H749.1
	C752.54,262.61,755.72,271.07,758.65,279.79L758.65,279.79z M787.58,279.79h14.14c-4.08-8.74-8.53-17.2-13.33-25.35h-12.09
	C780.37,262.61,784.13,271.07,787.58,279.79L787.58,279.79z M813,279.79h5.3c-4.4-8.75-9.2-17.2-14.39-25.35h-3.69
	C804.83,262.61,809.09,271.07,813,279.79L813,279.79z M829.68,279.79h2.51c-4.68-8.75-9.78-17.2-15.28-25.35h-0.99
	C820.88,262.61,825.47,271.07,829.68,279.79L829.68,279.79z M843.78,279.79h1.05c-3.53-6.27-7.29-12.38-11.28-18.35
	C837.18,267.42,840.58,273.54,843.78,279.79L843.78,279.79z M878.28,376.1h-3.96c1.83,12.81,2.89,25.9,3.11,39.2h4.24
	C881.43,402,880.27,388.91,878.28,376.1L878.28,376.1z M863.92,376.1h-5.46c1.72,12.81,2.73,25.9,2.93,39.2h5.75
	C866.91,402,865.82,388.91,863.92,376.1L863.92,376.1z M848.17,376.1h-8.43c1.6,12.81,2.54,25.9,2.73,39.2h8.73
	C850.99,402,849.95,388.91,848.17,376.1L848.17,376.1z M829.39,376.1h-18.22c1.41,12.81,2.24,25.9,2.41,39.2h18.61
	C832,402,831.04,388.91,829.39,376.1L829.39,376.1z M800.79,376.1h-22.12c1.2,12.81,1.91,25.9,2.05,39.2h22.54
	C803.08,402,802.24,388.91,800.79,376.1L800.79,376.1z M768.35,376.1H741.1c0.95,12.81,1.52,25.9,1.63,39.2h27.7
	C770.29,402,769.57,388.91,768.35,376.1L768.35,376.1z M730.82,376.1h-31.98c0.67,12.82,1.07,25.9,1.15,39.2h32.46
	C732.33,402,731.78,388.91,730.82,376.1L730.82,376.1z M688.55,376.1h-38.99c0.33,12.81,0.54,25.9,0.58,39.2h39.56
	C689.63,402,689.22,388.91,688.55,376.1L688.55,376.1z M639.28,376.1h-39.31v39.2h39.89C639.82,402,639.62,388.91,639.28,376.1
	L639.28,376.1z M589.69,376.1h-38.97c-0.34,12.8-0.54,25.9-0.58,39.2h39.56V376.1L589.69,376.1z M540.43,376.1h-38.99
	c-0.67,12.8-1.08,25.9-1.16,39.2h39.56C539.89,402,540.1,388.91,540.43,376.1L540.43,376.1z M491.16,376.1h-31.97
	c-0.96,12.8-1.53,25.89-1.65,39.2h32.47C490.09,402.01,490.49,388.92,491.16,376.1L491.16,376.1z M448.88,376.1h-27.23
	c-1.23,12.8-1.94,25.9-2.09,39.2h27.69C447.37,402.01,447.93,388.92,448.88,376.1L448.88,376.1z M411.33,376.1h-22.12
	c-1.45,12.8-2.29,25.9-2.46,39.2h22.54C409.43,402.01,410.13,388.92,411.33,376.1L411.33,376.1z M378.82,376.1h-18.22
	c-1.65,12.8-2.61,25.9-2.81,39.2h18.62C376.58,402.01,377.41,388.92,378.82,376.1L378.82,376.1z M350.25,376.1h-8.44
	c-1.78,12.8-2.81,25.9-3.02,39.2h8.73C347.71,402.01,348.65,388.92,350.25,376.1L350.25,376.1z M331.53,376.1h-5.46
	c-1.89,12.8-2.99,25.9-3.22,39.2h5.74C328.8,402.01,329.8,388.92,331.53,376.1L331.53,376.1z M315.68,376.1h-3.96
	c-1.99,12.8-3.16,25.9-3.39,39.2h4.24C312.79,402.01,313.85,388.92,315.68,376.1L315.68,376.1z M313.52,365.82h3.81
	c2.07-11.67,4.78-23.09,8.1-34.25h-3.07C318.73,342.71,315.77,354.13,313.52,365.82L313.52,365.82z M327.77,365.82h5.31
	c1.94-11.67,4.5-23.09,7.64-34.25h-4.56C332.72,342.71,329.91,354.13,327.77,365.82L327.77,365.82z M343.41,365.82h8.28
	c1.81-11.67,4.19-23.09,7.1-34.25h-7.48C348.06,342.71,345.42,354.14,343.41,365.82L343.41,365.82z M362.09,365.82h18.01
	c1.6-11.67,3.68-23.09,6.25-34.25H369.4C366.4,342.71,363.96,354.13,362.09,365.82L362.09,365.82z M390.51,365.82h21.9
	c1.35-11.67,3.13-23.09,5.31-34.25h-20.78C394.3,342.71,392.15,354.13,390.51,365.82L390.51,365.82z M422.75,365.82h26.98
	c1.07-11.67,2.48-23.09,4.2-34.25h-25.77C425.94,342.71,424.13,354.13,422.75,365.82L422.75,365.82z M460.05,365.82h31.71
	c0.76-11.67,1.73-23.1,2.95-34.25h-30.39C462.56,342.71,461.14,354.14,460.05,365.82L460.05,365.82z M502.06,365.82h38.69
	c0.37-11.67,0.86-23.1,1.47-34.25h-37.18C503.81,342.71,502.82,354.14,502.06,365.82L502.06,365.82z M551.02,365.82h38.67v-34.25
	h-37.18C551.89,342.71,551.4,354.14,551.02,365.82L551.02,365.82z M599.97,365.82h39c-0.38-11.68-0.87-23.11-1.48-34.25h-37.52
	V365.82L599.97,365.82z M649.26,365.82h38.69c-0.76-11.68-1.75-23.11-2.98-34.25h-37.18C648.4,342.72,648.88,354.15,649.26,365.82
	L649.26,365.82z M698.24,365.82h31.72c-1.08-11.68-2.49-23.11-4.24-34.25h-30.43C696.5,342.72,697.48,354.15,698.24,365.82
	L698.24,365.82z M740.24,365.82h27.01c-1.38-11.69-3.19-23.11-5.42-34.25h-25.81C737.75,342.73,739.17,354.15,740.24,365.82
	L740.24,365.82z M777.59,365.82h21.9c-1.64-11.69-3.78-23.11-6.42-34.25h-20.79C774.46,342.73,776.24,354.15,777.59,365.82
	L777.59,365.82z M809.9,365.82h18.01c-1.87-11.69-4.31-23.11-7.32-34.25h-16.95C806.22,342.73,808.31,354.15,809.9,365.82
	L809.9,365.82z M838.31,365.82h8.26c-2.01-11.68-4.66-23.11-7.9-34.25h-7.46C834.12,342.73,836.5,354.15,838.31,365.82
	L838.31,365.82z M856.91,365.82h5.32c-2.14-11.69-4.95-23.11-8.39-34.25h-4.55C852.42,342.73,854.97,354.15,856.91,365.82
	L856.91,365.82z M872.67,365.82h3.81c-2.26-11.69-5.21-23.11-8.84-34.25h-3.07C867.89,342.73,870.6,354.15,872.67,365.82
	L872.67,365.82z M807.38,241.18l2,2.98h0.24L807.38,241.18L807.38,241.18z M809.44,596.7l-2.1,3.13l2.37-3.13H809.44L809.44,596.7z
	 M382.47,599.58l-1.93-2.87h-0.25C381.01,597.67,381.75,598.62,382.47,599.58L382.47,599.58z M380.63,244.16l2.13-3.17l-2.39,3.17
	H380.63L380.63,244.16z M552.74,147.8c-1.64,1.12-3.27,2.31-4.89,3.56h2.08C550.85,150.14,551.79,148.95,552.74,147.8L552.74,147.8z
	"/>
</svg>
