<?xml version="1.0" encoding="utf-8"?>
<!-- Generator: Adobe Illustrator 26.0.3, SVG Export Plug-In . SVG Version: 6.00 Build 0)  -->
<svg version="1.0" id="katman_1" xmlns="http://www.w3.org/2000/svg" xmlns:xlink="http://www.w3.org/1999/xlink" x="0px" y="0px"
	 viewBox="0 0 600 450" style="enable-background:new 0 0 600 450;" xml:space="preserve">
<style type="text/css">
	.st0{fill:url(#instagram_00000075121230425124726760000009790490330523015349_);}
</style>
<linearGradient id="instagram_00000108998754355397778860000008873818705082645121_" gradientUnits="userSpaceOnUse" x1="17.5008" y1="446.2617" x2="10.5286" y2="437.0028" gradientTransform="matrix(32.0688 0 0 -32.0693 -152.0143 14391.5254)">
	<stop  offset="0" style="stop-color:#7D4292"/>
	<stop  offset="0.551" style="stop-color:#EC663A"/>
	<stop  offset="1" style="stop-color:#FBBD3F"/>
</linearGradient>
<path id="instagram" style="fill:url(#instagram_00000108998754355397778860000008873818705082645121_);" d="M299,389.8
	c-90.2,0-163.3-73.1-163.3-163.3c0-43.3,17.2-84.9,47.8-115.5c63.4-64.2,166.8-64.8,231-1.4s64.8,166.8,1.4,231
	c-0.5,0.5-0.9,0.9-1.4,1.4C383.9,372.7,342.3,390,299,389.8z M296,315.9c3.2,0,6.3,0,9.5,0.1c3.2,0.1,6.3,0.1,9.4,0.1
	c29.5,0,57-2.4,68.5-32c4.6-16.7,6.3-34,4.9-51.2c0-3,0-6,0-9.2c0-3.5,0-6.8,0-10c0.2-30.7,0.3-51-15.5-66.8
	c-14.4-14.4-33.5-15.6-57-15.6c-3,0-6.1,0-9.3,0c-3.4,0-6.9,0-10.5,0c-3.1,0-6.1,0-9.1,0s-6,0-8.9,0c-31.2,0-57.9,2.4-69.4,31.9
	c-4.6,16.7-6.3,34.1-4.9,51.4c0,2.9,0,6,0,9.1c0,2.5,0,5,0,7.4v0.2c-1.3,17.8,0.4,35.6,4.9,52.8c11.5,29.5,38.3,31.9,69.5,31.9
	c2.9,0,5.9,0,8.9,0C289.9,316,293,315.9,296,315.9L296,315.9z M317,299.4L317,299.4c-3.2,0-6.5,0-10-0.1c-3.5-0.1-7.2-0.1-10.9-0.1
	c-73.5,0-75.6-2.1-75.6-75.7c0-37.8,1.5-56.1,10.6-65.7c9.1-9.6,24.8-9.9,56.8-9.9h2.1c4.5,0,8.7,0,12.7-0.1c4.5,0,8.8-0.1,12.8-0.1
	c23.4,0,36.8,1.6,45.2,10.3c12.5,13,13.3,42.2,10.6,102.8C369.5,296.6,346.7,299.4,317,299.4L317,299.4z M296,176.2
	c-26.2,0-47.4,21.2-47.4,47.4S269.8,271,296,271s47.4-21.2,47.4-47.4c0,0,0,0,0,0C343.4,197.5,322.2,176.2,296,176.2L296,176.2z
	 M345.3,163.3c-6.1,0-11.1,5-11.1,11.1s5,11.1,11.1,11.1c6.1,0,11.1-5,11.1-11.1v0C356.4,168.2,351.4,163.3,345.3,163.3L345.3,163.3
	z M296,254.4c-16.2,0.6-29.9-12-30.5-28.2c0-0.9,0-1.7,0-2.6c-0.1-7.7,2.6-15.3,7.6-21.1c5.8-6.4,14.2-9.9,22.9-9.6
	c16.2-0.6,29.9,12,30.5,28.2c0,0.9,0,1.7,0,2.6c0.1,7.7-2.6,15.3-7.6,21.1C313.1,251.2,304.7,254.7,296,254.4L296,254.4z"/>
</svg>
