<?xml version="1.0" encoding="utf-8"?>
<!-- Generator: Adobe Illustrator 24.3.0, SVG Export Plug-In . SVG Version: 6.00 Build 0)  -->
<svg version="1.0" id="katman_1" xmlns="http://www.w3.org/2000/svg" xmlns:xlink="http://www.w3.org/1999/xlink" x="0px" y="0px"
	 viewBox="0 0 841.89 595.28" style="enable-background:new 0 0 841.89 595.28;" xml:space="preserve">
<style type="text/css">
	.st0{clip-path:url(#SVGID_2_);}
	.st1{fill:#FFFFFF;}
	.st2{fill:#FF004F;}
	.st3{fill:#00F2EA;}
</style>
<g>
	<defs>
		<rect id="SVGID_1_" x="195.9" y="72.08" width="450.7" height="450.7"/>
	</defs>
	<clipPath id="SVGID_2_">
		<use xlink:href="#SVGID_1_"  style="overflow:visible;"/>
	</clipPath>
	<g id="a" class="st0">
		<path d="M421.25,72.08c124.46,0,225.35,100.89,225.35,225.35S545.71,522.79,421.25,522.79S195.9,421.9,195.9,297.44
			S296.79,72.08,421.25,72.08z"/>
		<path class="st1" d="M422.5,96.12c111.87,0,202.56,90.69,202.56,202.56S534.38,501.25,422.5,501.25s-202.56-90.69-202.56-202.56
			S310.63,96.12,422.5,96.12C422.5,96.12,422.5,96.12,422.5,96.12z"/>
		<g transform="translate(30.021 24.248)">
			<path class="st2" d="M456.18,229.51c20.39,14.58,44.83,22.4,69.9,22.35v-50.13c-4.93,0-9.85-0.51-14.68-1.54l-1.26,38.26
				c-24.55,0.45-48.6-6.96-68.63-21.15v102.3c-0.04,51.21-41.59,92.7-92.8,92.66c-18.34-0.01-36.27-5.47-51.51-15.67
				c35.81,36.6,94.51,37.25,131.12,1.44c17.82-17.43,27.87-41.3,27.88-66.22L456.18,229.51L456.18,229.51z M474.29,178.94
				c-10.36-11.28-16.72-25.65-18.11-40.91v-6.45h-13.91C445.74,151.2,457.38,168.41,474.29,178.94L474.29,178.94z M329.57,357.32
				c-14.15-18.67-10.49-45.27,8.17-59.42c10.98-8.32,25.32-10.8,38.45-6.63v-51.25c-4.86-0.67-9.77-0.95-14.67-0.84v39.89
				c-22.8-7.16-47.08,5.52-54.24,28.32c-1.2,3.81-1.86,7.76-1.97,11.75C305.67,335.38,315.01,350.09,329.57,357.32z"/>
			<path class="st3" d="M511.39,200.69v-9.85c-13.12,0.02-25.98-3.65-37.11-10.6C484.2,190.79,497.18,197.95,511.39,200.69z
				 M442.27,132.9c-0.33-1.91-0.59-3.83-0.77-5.76v-6.45h-50.45v200.22c-0.1,23.43-19.18,42.34-42.61,42.24
				c-6.56-0.03-13.02-1.58-18.87-4.52c7.75,10.16,20.13,18.33,33.89,18.33c23.37,0,43.39-17.86,43.47-41.2l0.36-202.87L442.27,132.9
				z M361.52,240.49v-11.36c-50.78-6.97-97.6,28.54-104.57,79.32c-0.57,4.13-0.86,8.3-0.86,12.47c0,0.38,0,0.77,0,1.48
				c0.43,31.27,12.92,57.66,42.5,75.14c-35.88-36.08-35.71-94.41,0.37-130.29C315.63,250.67,338.01,241.1,361.52,240.49z"/>
			<path d="M441.5,217.31c20.39,14.58,44.83,22.4,69.9,22.35V200.2c-14.28-3.05-27.25-10.49-37.11-21.26
				c-16.91-10.53-28.55-27.74-32.02-47.35h-36.54v200.22c-0.09,23.42-19.16,42.34-42.58,42.24c-13.19-0.05-25.6-6.24-33.58-16.73
				c-20.91-10.55-29.3-36.05-18.75-56.96c9.38-18.58,30.86-27.61,50.7-21.3v-39.89c-51.16,1.04-91.79,43.36-90.74,94.52
				c0.48,23.57,9.92,46.06,26.41,62.91c42.56,28.49,100.15,17.08,128.64-25.47c10.2-15.24,15.66-33.17,15.67-51.51L441.5,217.31
				L441.5,217.31z"/>
		</g>
	</g>
</g>
</svg>
