<?xml version="1.0" encoding="utf-8"?>
<!-- Generator: Adobe Illustrator 26.0.3, SVG Export Plug-In . SVG Version: 6.00 Build 0)  -->
<svg version="1.0" id="katman_1" xmlns="http://www.w3.org/2000/svg" xmlns:xlink="http://www.w3.org/1999/xlink" x="0px" y="0px"
	 viewBox="0 0 600 450" style="enable-background:new 0 0 600 450;" xml:space="preserve">
<style type="text/css">
	.st0{fill:#53B262;}
	.st1{fill:none;}
	.st2{fill-rule:evenodd;clip-rule:evenodd;fill:#FFFFFF;}
</style>
<g id="icon-fixed-whatsapp" transform="translate(-1661 -5427)">
	<g transform="matrix(1, 0, 0, 1, 1661, 5427)">
		<circle id="Ellipse_126-2" class="st0" cx="300.1" cy="225.4" r="170.4"/>
	</g>
	<g id="Group_1683" transform="translate(1687 5450.36)">
		<rect id="Rectangle_36" x="200.3" y="130.2" class="st1" width="147.7" height="147.7"/>
		<g id="Group_1148" transform="translate(0 0)">
			<g id="Group_1146" transform="translate(0 0)">
				<path id="Path_11989" class="st2" d="M272.9,130.2c-40.1,0-72.6,32.5-72.6,72.6c0,14,4,27.6,11.6,39.4l-11,24.3
					c-1.4,3.2,0,6.9,3.1,8.4c0.8,0.4,1.7,0.6,2.6,0.6c0.6,0,1.1-0.1,1.7-0.2l30.4-8.3c35.4,18.9,79.3,5.5,98.2-29.8
					s5.5-79.3-29.8-98.2C296.6,133.2,284.8,130.2,272.9,130.2L272.9,130.2z M272.9,262.7c-10.6,0-21-2.8-30.2-8.2
					c-1-0.6-2.1-0.9-3.2-0.9c-0.6,0-1.1,0.1-1.7,0.2l-19.8,5.4l6.9-15.2c0.9-2.1,0.7-4.5-0.6-6.3c-19.3-26.8-13.2-64.3,13.6-83.6
					c26.8-19.3,64.3-13.2,83.6,13.6c19.3,26.8,13.2,64.3-13.6,83.6C297.7,258.8,285.4,262.7,272.9,262.7L272.9,262.7z"/>
			</g>
			<g id="Group_1147" transform="translate(6.57 6.945)">
				<path id="Path_11990" class="st2" d="M294.2,206.7c-3-2.4-6.9-3.3-10.6-2.4c-2.7,1.1-4.5,5.4-6.3,7.6c-0.8,1.1-2.2,1.4-3.4,0.7
					c-10-3.9-18.5-11.1-23.9-20.5c-1-1.2-0.8-3,0.4-4c2-1.9,3.5-4.4,4.3-7.1c0.2-2.9-0.5-5.8-1.9-8.3c-1.1-3.6-3.3-6.8-6.2-9.3
					c-3.1-1.4-6.7-0.9-9.2,1.4c-4.3,3.7-6.7,9.1-6.5,14.8c0,1.6,0.2,3.1,0.6,4.7c1,3.6,2.5,7.1,4.5,10.3c1.4,2.5,3,4.8,4.7,7.1
					c5.5,7.5,12.4,14,20.3,18.9c4,2.5,8.2,4.5,12.7,6c4.6,2.1,9.7,2.9,14.8,2.3c5.8-0.9,10.8-4.6,13.4-9.9c0.7-1.6,0.9-3.4,0.6-5.1
					C301.8,210.5,297,208.4,294.2,206.7z"/>
			</g>
		</g>
	</g>
</g>
</svg>
